<svg width="80" height="80" viewBox="0 0 80 80" fill="none" xmlns="http://www.w3.org/2000/svg">
<path d="M50.4833 55.25L8.27993 77.8033C7.42956 78.258 6.45548 78.4271 5.50163 78.2855C4.54779 78.144 3.66478 77.6993 2.98311 77.0173C2.30144 76.3352 1.85726 75.452 1.71623 74.498C1.5752 73.5441 1.74479 72.5701 2.19993 71.72L24.7499 29.5167" fill="#FBDDD9"/>
<path fill-rule="evenodd" clip-rule="evenodd" d="M25.1623 28.7449C25.5885 28.9726 25.7494 29.5028 25.5217 29.929L2.97168 72.1323C2.60516 72.8169 2.46825 73.6019 2.58182 74.37C2.69539 75.1382 3.05307 75.8495 3.602 76.3987C4.15092 76.9479 4.86198 77.306 5.63008 77.42C6.39818 77.534 7.18258 77.3978 7.86736 77.0317L50.0709 54.4783C50.4971 54.2505 51.0272 54.4114 51.255 54.8376C51.4827 55.2638 51.3219 55.7939 50.8957 56.0217L8.69251 78.5749C8.69245 78.575 8.69257 78.5749 8.69251 78.5749C7.67659 79.1181 6.51271 79.3201 5.37319 79.151C4.2336 78.9819 3.17864 78.4507 2.36422 77.6358C1.54981 76.8209 1.01914 75.7657 0.850641 74.626C0.68216 73.4864 0.884715 72.3229 1.42837 71.3073C1.42843 71.3072 1.42832 71.3074 1.42837 71.3073L23.9782 29.1043C24.2059 28.6781 24.7361 28.5172 25.1623 28.7449Z" fill="#222222"/>
<path fill-rule="evenodd" clip-rule="evenodd" d="M66.6382 36.758C62.4849 36.758 58.5012 38.4056 55.5613 41.3394C55.2192 41.6807 54.6652 41.6801 54.3239 41.3381C53.9825 40.996 53.9831 40.442 54.3252 40.1006C57.5932 36.8395 62.0214 35.008 66.6382 35.008C71.255 35.008 75.6833 36.8395 78.9513 40.1006C79.2934 40.442 79.294 40.996 78.9526 41.3381C78.6113 41.6801 78.0572 41.6807 77.7152 41.3394C74.7752 38.4056 70.7916 36.758 66.6382 36.758Z" fill="#222222"/>
<path fill-rule="evenodd" clip-rule="evenodd" d="M38.6078 1.04813C38.9494 0.706319 39.5034 0.706155 39.8452 1.04776C41.4631 2.66472 42.7466 4.58463 43.6223 6.69778C44.4979 8.81094 44.9486 11.0759 44.9486 13.3633C44.9486 15.6507 44.4979 17.9157 43.6223 20.0289C42.7466 22.142 41.4631 24.0619 39.8452 25.6789C39.5034 26.0205 38.9494 26.0203 38.6078 25.6785C38.2662 25.3367 38.2663 24.7827 38.6082 24.4411C40.0635 22.9867 41.2179 21.2597 42.0056 19.3589C42.7932 17.4582 43.1986 15.4208 43.1986 13.3633C43.1986 11.3058 42.7932 9.26849 42.0056 7.36772C41.2179 5.46695 40.0635 3.74001 38.6082 2.28557C38.2663 1.94396 38.2662 1.38994 38.6078 1.04813Z" fill="#222222"/>
<path fill-rule="evenodd" clip-rule="evenodd" d="M72.7769 23.327C72.9296 23.7855 72.6816 24.2809 72.2231 24.4336L60.5264 28.3269C60.0679 28.4795 59.5725 28.2315 59.4198 27.773C59.2672 27.3145 59.5152 26.8191 59.9737 26.6665L71.6704 22.7731C72.1289 22.6205 72.6243 22.8685 72.7769 23.327Z" fill="#222222"/>
<path fill-rule="evenodd" clip-rule="evenodd" d="M56.6301 7.17657C57.0885 7.32939 57.3363 7.82492 57.1835 8.28337L53.2835 19.9834C53.1306 20.4418 52.6351 20.6896 52.1767 20.5368C51.7182 20.384 51.4704 19.8884 51.6233 19.43L55.5233 7.72997C55.6761 7.27152 56.1716 7.02375 56.6301 7.17657Z" fill="#222222"/>
<path fill-rule="evenodd" clip-rule="evenodd" d="M25.675 15.9033C25.675 15.4201 26.0668 15.0283 26.55 15.0283C27.0031 15.0283 27.4377 15.2083 27.758 15.5287C28.0784 15.8491 28.2584 16.2836 28.2584 16.7367C28.2584 17.2199 27.8666 17.6117 27.3834 17.6117C26.9138 17.6117 26.5306 17.2417 26.5093 16.7774C26.045 16.7561 25.675 16.3729 25.675 15.9033Z" fill="#222222"/>
<path fill-rule="evenodd" clip-rule="evenodd" d="M26.5908 16.7774C27.0551 16.7561 27.4251 16.3729 27.4251 15.9033C27.4251 15.4201 27.0333 15.0283 26.5501 15.0283C26.097 15.0283 25.6625 15.2083 25.3421 15.5287C25.0217 15.8491 24.8417 16.2836 24.8417 16.7367C24.8417 17.2199 25.2335 17.6117 25.7167 17.6117C26.1863 17.6117 26.5695 17.2417 26.5908 16.7774Z" fill="#222222"/>
<path fill-rule="evenodd" clip-rule="evenodd" d="M26.5908 16.6959C26.5695 16.2316 26.1863 15.8617 25.7167 15.8617C25.2335 15.8617 24.8417 16.2534 24.8417 16.7367C24.8417 17.1897 25.0217 17.6243 25.3421 17.9446C25.6625 18.265 26.097 18.445 26.5501 18.445C27.0333 18.445 27.4251 18.0532 27.4251 17.57C27.4251 17.1004 27.0551 16.7172 26.5908 16.6959Z" fill="#222222"/>
<path fill-rule="evenodd" clip-rule="evenodd" d="M27.3834 15.8617C27.8666 15.8617 28.2584 16.2534 28.2584 16.7367C28.2584 17.1897 28.0784 17.6243 27.758 17.9446C27.4376 18.265 27.0031 18.445 26.55 18.445C26.0668 18.445 25.675 18.0532 25.675 17.57C25.675 17.1004 26.045 16.7172 26.5093 16.6959C26.5306 16.2316 26.9138 15.8617 27.3834 15.8617Z" fill="#222222"/>
<path fill-rule="evenodd" clip-rule="evenodd" d="M50.675 25.9033C50.675 25.4201 51.0668 25.0283 51.55 25.0283C52.0031 25.0283 52.4376 25.2083 52.758 25.5287C53.0784 25.8491 53.2584 26.2836 53.2584 26.7367C53.2584 27.2199 52.8666 27.6117 52.3834 27.6117C51.9138 27.6117 51.5306 27.2417 51.5093 26.7774C51.045 26.7561 50.675 26.3729 50.675 25.9033Z" fill="#222222"/>
<path fill-rule="evenodd" clip-rule="evenodd" d="M51.5908 26.7774C52.0551 26.7561 52.4251 26.3729 52.4251 25.9033C52.4251 25.4201 52.0333 25.0283 51.5501 25.0283C51.097 25.0283 50.6625 25.2083 50.3421 25.5287C50.0217 25.8491 49.8417 26.2836 49.8417 26.7367C49.8417 27.2199 50.2335 27.6117 50.7167 27.6117C51.1863 27.6117 51.5695 27.2417 51.5908 26.7774Z" fill="#222222"/>
<path fill-rule="evenodd" clip-rule="evenodd" d="M51.5908 26.6959C51.5695 26.2316 51.1863 25.8617 50.7167 25.8617C50.2335 25.8617 49.8417 26.2534 49.8417 26.7367C49.8417 27.1897 50.0217 27.6243 50.3421 27.9446C50.6625 28.265 51.097 28.445 51.5501 28.445C52.0333 28.445 52.4251 28.0532 52.4251 27.57C52.4251 27.1004 52.0551 26.7172 51.5908 26.6959Z" fill="#222222"/>
<path fill-rule="evenodd" clip-rule="evenodd" d="M52.3834 25.8617C52.8666 25.8617 53.2584 26.2534 53.2584 26.7367C53.2584 27.1897 53.0784 27.6243 52.758 27.9446C52.4376 28.265 52.0031 28.445 51.55 28.445C51.0668 28.445 50.675 28.0532 50.675 27.57C50.675 27.1004 51.045 26.7172 51.5093 26.6959C51.5306 26.2316 51.9138 25.8617 52.3834 25.8617Z" fill="#222222"/>
<path fill-rule="evenodd" clip-rule="evenodd" d="M64.0084 45.9033C64.0084 45.4201 64.4002 45.0283 64.8834 45.0283C65.3365 45.0283 65.771 45.2083 66.0914 45.5287C66.4118 45.8491 66.5918 46.2836 66.5918 46.7367C66.5918 47.2199 66.2 47.6117 65.7168 47.6117C65.2472 47.6117 64.864 47.2417 64.8427 46.7774C64.3784 46.7561 64.0084 46.3729 64.0084 45.9033Z" fill="#222222"/>
<path fill-rule="evenodd" clip-rule="evenodd" d="M64.9241 46.7774C65.3885 46.7561 65.7584 46.3729 65.7584 45.9033C65.7584 45.4201 65.3666 45.0283 64.8834 45.0283C64.4303 45.0283 63.9958 45.2083 63.6754 45.5287C63.355 45.8491 63.175 46.2836 63.175 46.7367C63.175 47.2199 63.5668 47.6117 64.05 47.6117C64.5196 47.6117 64.9028 47.2417 64.9241 46.7774Z" fill="#222222"/>
<path fill-rule="evenodd" clip-rule="evenodd" d="M64.9241 46.6959C64.9028 46.2316 64.5196 45.8617 64.05 45.8617C63.5668 45.8617 63.175 46.2534 63.175 46.7367C63.175 47.1897 63.355 47.6243 63.6754 47.9446C63.9958 48.265 64.4303 48.445 64.8834 48.445C65.3666 48.445 65.7584 48.0532 65.7584 47.57C65.7584 47.1004 65.3885 46.7172 64.9241 46.6959Z" fill="#222222"/>
<path fill-rule="evenodd" clip-rule="evenodd" d="M65.7168 45.8617C66.2 45.8617 66.5918 46.2534 66.5918 46.7367C66.5918 47.1897 66.4118 47.6243 66.0914 47.9446C65.771 48.265 65.3365 48.445 64.8834 48.445C64.4002 48.445 64.0084 48.0532 64.0084 47.57C64.0084 47.1004 64.3784 46.7172 64.8427 46.6959C64.864 46.2316 65.2472 45.8617 65.7168 45.8617Z" fill="#222222"/>
<path fill-rule="evenodd" clip-rule="evenodd" d="M65.675 12.57C65.675 12.0867 66.0668 11.695 66.55 11.695C67.0031 11.695 67.4376 11.875 67.758 12.1954C68.0784 12.5157 68.2584 12.9503 68.2584 13.4033C68.2584 13.8866 67.8666 14.2783 67.3834 14.2783C66.9138 14.2783 66.5306 13.9084 66.5093 13.4441C66.045 13.4228 65.675 13.0396 65.675 12.57Z" fill="#222222"/>
<path fill-rule="evenodd" clip-rule="evenodd" d="M66.5908 13.4441C67.0551 13.4228 67.4251 13.0396 67.4251 12.57C67.4251 12.0867 67.0333 11.695 66.5501 11.695C66.097 11.695 65.6625 11.875 65.3421 12.1954C65.0217 12.5157 64.8417 12.9503 64.8417 13.4033C64.8417 13.8866 65.2335 14.2783 65.7167 14.2783C66.1863 14.2783 66.5695 13.9084 66.5908 13.4441Z" fill="#222222"/>
<path fill-rule="evenodd" clip-rule="evenodd" d="M66.5908 13.3626C66.5695 12.8982 66.1863 12.5283 65.7167 12.5283C65.2335 12.5283 64.8417 12.9201 64.8417 13.4033C64.8417 13.8564 65.0217 14.2909 65.3421 14.6113C65.6625 14.9317 66.097 15.1117 66.5501 15.1117C67.0333 15.1117 67.4251 14.7199 67.4251 14.2367C67.4251 13.7671 67.0551 13.3839 66.5908 13.3626Z" fill="#222222"/>
<path fill-rule="evenodd" clip-rule="evenodd" d="M67.3834 12.5283C67.8666 12.5283 68.2584 12.9201 68.2584 13.4033C68.2584 13.8564 68.0784 14.2909 67.758 14.6113C67.4376 14.9317 67.0031 15.1117 66.55 15.1117C66.0668 15.1117 65.675 14.7199 65.675 14.2367C65.675 13.7671 66.045 13.3839 66.5093 13.3626C66.5306 12.8982 66.9138 12.5283 67.3834 12.5283Z" fill="#222222"/>
<path d="M51.3022 54.6245C54.5566 51.3702 51.3908 42.928 44.2312 35.7684C37.0715 28.6087 28.6293 25.4429 25.375 28.6973C22.1206 31.9517 25.2864 40.3939 32.446 47.5535C39.6057 54.7131 48.0479 57.8789 51.3022 54.6245Z" fill="#F7AFA6"/>
<path fill-rule="evenodd" clip-rule="evenodd" d="M25.8246 36.3537C27.0511 39.6243 29.5525 43.4225 33.0648 46.9347C36.5771 50.447 40.3752 52.9485 43.6458 54.175C46.9977 55.4319 49.4482 55.2412 50.6835 54.0058C51.9189 52.7705 52.1096 50.32 50.8527 46.9681C49.6262 43.6975 47.1247 39.8994 43.6125 36.3871C40.1002 32.8748 36.302 30.3734 33.0314 29.1469C29.6795 27.8899 27.2291 28.0806 25.9937 29.316C24.7583 30.5514 24.5676 33.0018 25.8246 36.3537ZM24.186 36.9681C22.8837 33.4954 22.7373 30.0976 24.7563 28.0786C26.7753 26.0596 30.1731 26.206 33.6458 27.5083C37.1998 28.841 41.2026 31.5023 44.8499 35.1496C48.4972 38.797 51.1585 42.7997 52.4912 46.3537C53.7935 49.8264 53.94 53.2242 51.921 55.2433C49.902 57.2623 46.5041 57.1158 43.0314 55.8135C39.4774 54.4808 35.4747 51.8195 31.8273 48.1722C28.18 44.5249 25.5187 40.5221 24.186 36.9681Z" fill="#222222"/>
<path d="M11 76.5C7.18824 72.7286 7 66.0476 7 63.4286L10.5 56C8.38235 63.5429 12.7059 70.5079 15 74L11 76.5Z" fill="#F06F5E"/>
<path fill-rule="evenodd" clip-rule="evenodd" d="M10.8058 55.1802C11.2321 55.3392 11.4654 55.7984 11.3424 56.2365C9.34419 63.3541 13.4194 70.0005 15.7313 73.5196C15.8606 73.7164 15.9051 73.957 15.8548 74.1871C15.8044 74.4171 15.6635 74.6172 15.4637 74.742L11.4637 77.242C11.1197 77.457 10.673 77.4074 10.3846 77.122C8.30589 75.0653 7.25486 72.2615 6.71462 69.7136C6.17196 67.1544 6.125 64.7569 6.125 63.4286C6.125 63.2996 6.1535 63.1723 6.20846 63.0556L9.70846 55.6271C9.90239 55.2154 10.3795 55.0212 10.8058 55.1802ZM7.87538 63.6236C7.88067 64.9387 7.94669 67.0875 8.42656 69.3506C8.88573 71.5162 9.70781 73.7081 11.1471 75.3762L13.7808 73.7301C11.9874 70.9352 9.35763 66.3473 9.0811 61.0645L7.87538 63.6236Z" fill="#222222"/>
<path d="M20.7647 71C16.9529 67.2286 13.5 60 13 51.5L17 44.5C15.5 53.5 22.5 66 25.5 68.5L20.7647 71Z" fill="#F06F5E"/>
<path fill-rule="evenodd" clip-rule="evenodd" d="M17.2936 43.6757C17.6928 43.8179 17.9328 44.2258 17.8631 44.6439C17.1539 48.8989 18.4535 54.0874 20.3679 58.5955C21.3184 60.8338 22.4057 62.8696 23.4344 64.4925C24.4763 66.1364 25.4176 67.2923 26.0602 67.8278C26.2844 68.0147 26.4007 68.301 26.3702 68.5913C26.3398 68.8815 26.1666 69.1375 25.9085 69.2738L21.1732 71.7738C20.8354 71.9522 20.4209 71.8907 20.1493 71.622C16.1606 67.6755 12.6371 60.2316 12.1265 51.5514C12.1165 51.3819 12.1561 51.2133 12.2403 51.0659L16.2403 44.0659C16.4506 43.6979 16.8943 43.5335 17.2936 43.6757ZM13.8896 51.7068C14.4106 59.5745 17.5111 66.2464 20.936 69.9201L24.0418 68.2804C23.3897 67.5432 22.675 66.5634 21.9563 65.4294C20.8755 63.7242 19.7441 61.6037 18.7571 59.2795C17.2967 55.8404 16.1193 51.8772 15.9405 48.1177L13.8896 51.7068Z" fill="#222222"/>
<path d="M31 65.5C27.1882 61.7286 20.5 47.5 20 39L23 33C21.5 42 30.5 58 36.5 62.5L31 65.5Z" fill="#F06F5E"/>
<path fill-rule="evenodd" clip-rule="evenodd" d="M23.2706 32.1679C23.6824 32.3018 23.9343 32.7167 23.8631 33.1439C23.5159 35.2271 23.7696 37.7817 24.4804 40.5563C25.1886 43.3205 26.336 46.2472 27.7218 49.0496C30.5104 54.6887 34.186 59.6708 37.025 61.8C37.2632 61.9786 37.3942 62.2661 37.3727 62.563C37.3513 62.86 37.1803 63.1256 36.919 63.2682L31.419 66.2682C31.0797 66.4532 30.6593 66.3938 30.3846 66.122C29.3496 65.098 28.1711 63.423 26.9886 61.4062C25.7976 59.3747 24.573 56.9449 23.4555 54.3718C21.2307 49.2489 19.3855 43.4549 19.1265 39.0514C19.1175 38.8984 19.1488 38.7458 19.2174 38.6087L22.2174 32.6087C22.411 32.2214 22.8588 32.034 23.2706 32.1679ZM20.8885 39.1795C21.1799 43.2529 22.9044 48.7098 25.0607 53.6747C26.1542 56.1926 27.3476 58.5584 28.4983 60.5211C29.4696 62.1777 30.39 63.5118 31.1752 64.4077L34.9478 62.3499C32.0131 59.7055 28.6885 54.9524 26.1532 49.8254C24.7265 46.9403 23.5301 43.8982 22.7852 40.9906C22.4255 39.5867 22.1676 38.2009 22.0431 36.8703L20.8885 39.1795Z" fill="#222222"/>
</svg>
