<svg width="64" height="64" viewBox="0 0 64 64" fill="none" xmlns="http://www.w3.org/2000/svg">
<path d="M40.3866 44.2L6.62396 62.2427C5.94366 62.6064 5.16439 62.7416 4.40132 62.6284C3.63824 62.5152 2.93183 62.1594 2.3865 61.6138C1.84116 61.0682 1.48582 60.3616 1.37299 59.5984C1.26017 58.8353 1.39584 58.0561 1.75996 57.376L19.8 23.6133" fill="#FBDDD9"/>
<path fill-rule="evenodd" clip-rule="evenodd" d="M20.1298 22.9959C20.4708 23.1781 20.5995 23.6022 20.4173 23.9432L2.37734 57.7059C2.08413 58.2535 1.9746 58.8815 2.06546 59.4961C2.15631 60.1106 2.44245 60.6796 2.8816 61.119C3.32074 61.5583 3.88958 61.8448 4.50406 61.936C5.11854 62.0272 5.74606 61.9183 6.29388 61.6254L40.0567 43.5826C40.3977 43.4004 40.8218 43.5291 41.004 43.8701C41.1862 44.211 41.0575 44.6352 40.7165 44.8174L6.95401 62.86C6.95396 62.86 6.95405 62.8599 6.95401 62.86C6.14127 63.2945 5.21017 63.4561 4.29855 63.3208C3.38687 63.1855 2.54291 62.7605 1.89137 62.1086C1.23984 61.4568 0.815308 60.6126 0.68051 59.7008C0.545725 58.7892 0.707769 57.8583 1.14269 57.0458C1.14274 57.0458 1.14265 57.0459 1.14269 57.0458L19.1825 23.2834C19.3647 22.9425 19.7889 22.8137 20.1298 22.9959Z" fill="#222222"/>
<path fill-rule="evenodd" clip-rule="evenodd" d="M53.3106 29.4064C49.988 29.4064 46.801 30.7245 44.4491 33.0715C44.1754 33.3446 43.7322 33.3441 43.4591 33.0704C43.186 32.7968 43.1865 32.3536 43.4602 32.0805C46.0746 29.4716 49.6172 28.0064 53.3106 28.0064C57.0041 28.0064 60.5467 29.4716 63.1611 32.0805C63.4347 32.3536 63.4352 32.7968 63.1621 33.0704C62.889 33.3441 62.4458 33.3446 62.1722 33.0715C59.8202 30.7245 56.6333 29.4064 53.3106 29.4064Z" fill="#222222"/>
<path fill-rule="evenodd" clip-rule="evenodd" d="M30.8862 0.838504C31.1595 0.565056 31.6027 0.564924 31.8762 0.838209C33.1705 2.13178 34.1973 3.6677 34.8978 5.35823C35.5983 7.04875 35.9589 8.86074 35.9589 10.6907C35.9589 12.5206 35.5983 14.3326 34.8978 16.0231C34.1973 17.7136 33.1705 19.2496 31.8762 20.5431C31.6027 20.8164 31.1595 20.8163 30.8862 20.5428C30.6129 20.2694 30.6131 19.8262 30.8865 19.5529C32.0508 18.3893 32.9743 17.0078 33.6044 15.4872C34.2346 13.9665 34.5589 12.3367 34.5589 10.6907C34.5589 9.04466 34.2346 7.41479 33.6044 5.89418C32.9743 4.37356 32.0508 2.99201 30.8865 1.82845C30.6131 1.55517 30.6129 1.11195 30.8862 0.838504Z" fill="#222222"/>
<path fill-rule="evenodd" clip-rule="evenodd" d="M58.2215 18.6616C58.3436 19.0284 58.1452 19.4247 57.7784 19.5468L48.4211 22.6615C48.0543 22.7836 47.6579 22.5852 47.5358 22.2184C47.4138 21.8516 47.6121 21.4553 47.9789 21.3332L57.3363 18.2185C57.7031 18.0964 58.0994 18.2948 58.2215 18.6616Z" fill="#222222"/>
<path fill-rule="evenodd" clip-rule="evenodd" d="M45.3041 5.74126C45.6708 5.86351 45.869 6.25994 45.7468 6.6267L42.6268 15.9867C42.5045 16.3535 42.1081 16.5517 41.7413 16.4294C41.3746 16.3072 41.1764 15.9107 41.2986 15.544L44.4186 6.18398C44.5409 5.81722 44.9373 5.619 45.3041 5.74126Z" fill="#222222"/>
<path fill-rule="evenodd" clip-rule="evenodd" d="M20.5401 12.7227C20.5401 12.3361 20.8535 12.0227 21.2401 12.0227C21.6025 12.0227 21.9501 12.1666 22.2064 12.4229C22.4627 12.6792 22.6067 13.0269 22.6067 13.3893C22.6067 13.7759 22.2933 14.0893 21.9067 14.0893C21.531 14.0893 21.2245 13.7934 21.2075 13.4219C20.836 13.4049 20.5401 13.0983 20.5401 12.7227Z" fill="#222222"/>
<path fill-rule="evenodd" clip-rule="evenodd" d="M21.2726 13.4219C21.6441 13.4049 21.9401 13.0983 21.9401 12.7227C21.9401 12.3361 21.6267 12.0227 21.2401 12.0227C20.8776 12.0227 20.53 12.1666 20.2737 12.4229C20.0174 12.6792 19.8734 13.0269 19.8734 13.3893C19.8734 13.7759 20.1868 14.0893 20.5734 14.0893C20.9491 14.0893 21.2556 13.7934 21.2726 13.4219Z" fill="#222222"/>
<path fill-rule="evenodd" clip-rule="evenodd" d="M21.2726 13.3567C21.2556 12.9853 20.9491 12.6893 20.5734 12.6893C20.1868 12.6893 19.8734 13.0027 19.8734 13.3893C19.8734 13.7518 20.0174 14.0994 20.2737 14.3557C20.53 14.612 20.8776 14.756 21.2401 14.756C21.6267 14.756 21.9401 14.4426 21.9401 14.056C21.9401 13.6803 21.6441 13.3738 21.2726 13.3567Z" fill="#222222"/>
<path fill-rule="evenodd" clip-rule="evenodd" d="M21.9067 12.6893C22.2933 12.6893 22.6067 13.0027 22.6067 13.3893C22.6067 13.7518 22.4627 14.0994 22.2064 14.3557C21.9501 14.612 21.6025 14.756 21.2401 14.756C20.8535 14.756 20.5401 14.4426 20.5401 14.056C20.5401 13.6803 20.836 13.3738 21.2075 13.3567C21.2245 12.9853 21.531 12.6893 21.9067 12.6893Z" fill="#222222"/>
<path fill-rule="evenodd" clip-rule="evenodd" d="M40.5401 20.7227C40.5401 20.3361 40.8535 20.0227 41.2401 20.0227C41.6025 20.0227 41.9501 20.1666 42.2064 20.4229C42.4627 20.6792 42.6067 21.0269 42.6067 21.3893C42.6067 21.7759 42.2933 22.0893 41.9067 22.0893C41.531 22.0893 41.2245 21.7934 41.2075 21.4219C40.836 21.4049 40.5401 21.0983 40.5401 20.7227Z" fill="#222222"/>
<path fill-rule="evenodd" clip-rule="evenodd" d="M41.2726 21.4219C41.6441 21.4049 41.94 21.0983 41.94 20.7227C41.94 20.3361 41.6266 20.0227 41.24 20.0227C40.8776 20.0227 40.53 20.1666 40.2737 20.4229C40.0174 20.6792 39.8734 21.0269 39.8734 21.3893C39.8734 21.7759 40.1868 22.0893 40.5734 22.0893C40.9491 22.0893 41.2556 21.7934 41.2726 21.4219Z" fill="#222222"/>
<path fill-rule="evenodd" clip-rule="evenodd" d="M41.2726 21.3567C41.2556 20.9853 40.9491 20.6893 40.5734 20.6893C40.1868 20.6893 39.8734 21.0027 39.8734 21.3893C39.8734 21.7518 40.0174 22.0994 40.2737 22.3557C40.53 22.612 40.8776 22.756 41.24 22.756C41.6266 22.756 41.94 22.4426 41.94 22.056C41.94 21.6803 41.6441 21.3738 41.2726 21.3567Z" fill="#222222"/>
<path fill-rule="evenodd" clip-rule="evenodd" d="M41.9067 20.6893C42.2933 20.6893 42.6067 21.0027 42.6067 21.3893C42.6067 21.7518 42.4627 22.0994 42.2064 22.3557C41.9501 22.612 41.6025 22.756 41.2401 22.756C40.8535 22.756 40.5401 22.4426 40.5401 22.056C40.5401 21.6803 40.836 21.3738 41.2075 21.3567C41.2245 20.9853 41.531 20.6893 41.9067 20.6893Z" fill="#222222"/>
<path fill-rule="evenodd" clip-rule="evenodd" d="M51.2067 36.7227C51.2067 36.3361 51.5201 36.0227 51.9067 36.0227C52.2692 36.0227 52.6168 36.1666 52.8731 36.4229C53.1294 36.6792 53.2734 37.0269 53.2734 37.3893C53.2734 37.7759 52.96 38.0893 52.5734 38.0893C52.1977 38.0893 51.8912 37.7934 51.8741 37.4219C51.5027 37.4049 51.2067 37.0983 51.2067 36.7227Z" fill="#222222"/>
<path fill-rule="evenodd" clip-rule="evenodd" d="M51.9393 37.4219C52.3108 37.4049 52.6067 37.0983 52.6067 36.7227C52.6067 36.3361 52.2933 36.0227 51.9067 36.0227C51.5443 36.0227 51.1966 36.1666 50.9403 36.4229C50.684 36.6793 50.5401 37.0269 50.5401 37.3893C50.5401 37.7759 50.8535 38.0893 51.2401 38.0893C51.6157 38.0893 51.9223 37.7934 51.9393 37.4219Z" fill="#222222"/>
<path fill-rule="evenodd" clip-rule="evenodd" d="M51.9393 37.3567C51.9223 36.9853 51.6157 36.6893 51.2401 36.6893C50.8535 36.6893 50.5401 37.0027 50.5401 37.3893C50.5401 37.7518 50.684 38.0994 50.9403 38.3557C51.1966 38.612 51.5443 38.756 51.9067 38.756C52.2933 38.756 52.6067 38.4426 52.6067 38.056C52.6067 37.6803 52.3108 37.3738 51.9393 37.3567Z" fill="#222222"/>
<path fill-rule="evenodd" clip-rule="evenodd" d="M52.5734 36.6893C52.96 36.6893 53.2734 37.0027 53.2734 37.3893C53.2734 37.7518 53.1294 38.0994 52.8731 38.3557C52.6168 38.612 52.2692 38.756 51.9067 38.756C51.5201 38.756 51.2067 38.4426 51.2067 38.056C51.2067 37.6803 51.5027 37.3738 51.8741 37.3567C51.8912 36.9853 52.1977 36.6893 52.5734 36.6893Z" fill="#222222"/>
<path fill-rule="evenodd" clip-rule="evenodd" d="M52.5401 10.056C52.5401 9.6694 52.8535 9.356 53.2401 9.356C53.6025 9.356 53.9501 9.49998 54.2064 9.75628C54.4627 10.0126 54.6067 10.3602 54.6067 10.7227C54.6067 11.1093 54.2933 11.4227 53.9067 11.4227C53.531 11.4227 53.2245 11.1267 53.2075 10.7552C52.836 10.7382 52.5401 10.4317 52.5401 10.056Z" fill="#222222"/>
<path fill-rule="evenodd" clip-rule="evenodd" d="M53.2726 10.7552C53.6441 10.7382 53.94 10.4317 53.94 10.056C53.94 9.6694 53.6266 9.356 53.24 9.356C52.8776 9.356 52.53 9.49998 52.2737 9.75628C52.0174 10.0126 51.8734 10.3602 51.8734 10.7227C51.8734 11.1093 52.1868 11.4227 52.5734 11.4227C52.9491 11.4227 53.2556 11.1267 53.2726 10.7552Z" fill="#222222"/>
<path fill-rule="evenodd" clip-rule="evenodd" d="M53.2726 10.6901C53.2556 10.3186 52.9491 10.0227 52.5734 10.0227C52.1868 10.0227 51.8734 10.3361 51.8734 10.7227C51.8734 11.0851 52.0174 11.4327 52.2737 11.689C52.53 11.9453 52.8776 12.0893 53.24 12.0893C53.6266 12.0893 53.94 11.7759 53.94 11.3893C53.94 11.0137 53.6441 10.7071 53.2726 10.6901Z" fill="#222222"/>
<path fill-rule="evenodd" clip-rule="evenodd" d="M53.9067 10.0227C54.2933 10.0227 54.6067 10.3361 54.6067 10.7227C54.6067 11.0851 54.4627 11.4327 54.2064 11.689C53.9501 11.9453 53.6025 12.0893 53.2401 12.0893C52.8535 12.0893 52.5401 11.7759 52.5401 11.3893C52.5401 11.0137 52.836 10.7071 53.2075 10.6901C53.2245 10.3186 53.531 10.0227 53.9067 10.0227Z" fill="#222222"/>
<path d="M41.0418 43.6996C43.6453 41.0961 41.1126 34.3424 35.3849 28.6147C29.6572 22.887 22.9035 20.3543 20.3 22.9578C17.6965 25.5613 20.2291 32.3151 25.9568 38.0428C31.6845 43.7705 38.4383 46.3031 41.0418 43.6996Z" fill="#F7AFA6"/>
<path fill-rule="evenodd" clip-rule="evenodd" d="M20.6596 29.0829C21.6408 31.6994 23.642 34.738 26.4518 37.5478C29.2616 40.3576 32.3002 42.3588 34.9167 43.34C37.5982 44.3455 39.5585 44.1929 40.5468 43.2047C41.5351 42.2164 41.6877 40.256 40.6821 37.5745C39.7009 34.958 37.6998 31.9195 34.8899 29.1097C32.0801 26.2998 29.0416 24.2987 26.4251 23.3175C23.7436 22.3119 21.7832 22.4645 20.7949 23.4528C19.8067 24.4411 19.6541 26.4014 20.6596 29.0829ZM19.3488 29.5745C18.307 26.7963 18.1898 24.0781 19.805 22.4629C21.4202 20.8477 24.1385 20.9648 26.9167 22.0066C29.7598 23.0728 32.962 25.2018 35.8799 28.1197C38.7978 31.0376 40.9268 34.2398 41.993 37.0829C43.0348 39.8611 43.152 42.5794 41.5367 44.1946C39.9215 45.8098 37.2033 45.6926 34.4251 44.6508C31.5819 43.5846 28.3797 41.4556 25.4619 38.5377C22.544 35.6199 20.415 32.4177 19.3488 29.5745Z" fill="#222222"/>
<path d="M8.80001 61.2C5.75059 58.1829 5.60001 52.8381 5.60001 50.7429L8.40001 44.8C6.70589 50.8343 10.1647 56.4064 12 59.2L8.80001 61.2Z" fill="#F06F5E"/>
<path fill-rule="evenodd" clip-rule="evenodd" d="M8.64462 44.1441C8.98569 44.2714 9.17233 44.6387 9.07394 44.9892C7.47534 50.6833 10.7355 56.0004 12.585 58.8157C12.6885 58.9731 12.7241 59.1656 12.6838 59.3497C12.6435 59.5337 12.5308 59.6938 12.371 59.7936L9.17099 61.7936C8.89576 61.9656 8.53838 61.9259 8.30766 61.6976C6.64471 60.0523 5.80388 57.8092 5.37169 55.7709C4.93756 53.7235 4.89999 51.8055 4.89999 50.7429C4.89999 50.6397 4.92279 50.5378 4.96676 50.4445L7.76676 44.5017C7.92191 44.1724 8.30356 44.0169 8.64462 44.1441ZM6.3003 50.8989C6.30453 51.9509 6.35734 53.67 6.74124 55.4805C7.10858 57.2129 7.76624 58.9665 8.91769 60.301L11.0247 58.9841C9.58991 56.7482 7.4861 53.0778 7.26487 48.8516L6.3003 50.8989Z" fill="#222222"/>
<path d="M16.6118 56.8C13.5623 53.7829 10.8 48 10.4 41.2L13.6 35.6C12.4 42.8 18 52.8 20.4 54.8L16.6118 56.8Z" fill="#F06F5E"/>
<path fill-rule="evenodd" clip-rule="evenodd" d="M13.8349 34.9406C14.1543 35.0543 14.3462 35.3806 14.2905 35.7151C13.7231 39.1191 14.7628 43.2699 16.2943 46.8764C17.0547 48.6671 17.9246 50.2957 18.7475 51.594C19.581 52.9092 20.3341 53.8339 20.8481 54.2623C21.0275 54.4117 21.1205 54.6408 21.0962 54.873C21.0718 55.1052 20.9333 55.31 20.7268 55.419L16.9386 57.419C16.6683 57.5617 16.3367 57.5126 16.1194 57.2976C12.9285 54.1404 10.1097 48.1853 9.70121 41.2411C9.69323 41.1056 9.72486 40.9706 9.79223 40.8527L12.9922 35.2527C13.1604 34.9583 13.5155 34.8268 13.8349 34.9406ZM11.1117 41.3654C11.5284 47.6596 14.0088 52.9971 16.7488 55.9361L19.2334 54.6243C18.7118 54.0345 18.14 53.2507 17.565 52.3435C16.7004 50.9793 15.7953 49.283 15.0057 47.4236C13.8373 44.6723 12.8954 41.5018 12.7524 38.4942L11.1117 41.3654Z" fill="#222222"/>
<path d="M24.8 52.4C21.7506 49.3829 16.4 38 16 31.2L18.4 26.4C17.2 33.6 24.4 46.4 29.2 50L24.8 52.4Z" fill="#F06F5E"/>
<path fill-rule="evenodd" clip-rule="evenodd" d="M18.6165 25.7343C18.9459 25.8414 19.1474 26.1734 19.0905 26.5151C18.8127 28.1817 19.0157 30.2254 19.5844 32.445C20.1509 34.6564 21.0688 36.9978 22.1775 39.2397C24.4083 43.751 27.3488 47.7366 29.62 49.44C29.8105 49.5829 29.9153 49.8129 29.8982 50.0504C29.881 50.288 29.7443 50.5005 29.5352 50.6145L25.1352 53.0145C24.8638 53.1626 24.5274 53.115 24.3077 52.8976C23.4797 52.0784 22.5369 50.7384 21.5909 49.1249C20.6381 47.4997 19.6584 45.5559 18.7644 43.4974C16.9845 39.3991 15.5084 34.7639 15.3012 31.2411C15.294 31.1187 15.3191 30.9966 15.3739 30.8869L17.7739 26.0869C17.9288 25.7771 18.2871 25.6272 18.6165 25.7343ZM16.7108 31.3436C16.9439 34.6023 18.3236 38.9678 20.0485 42.9397C20.9234 44.9541 21.8781 46.8467 22.7987 48.4169C23.5757 49.7422 24.312 50.8094 24.9402 51.5262L27.9583 49.8799C25.6105 47.7644 22.9508 43.9619 20.9225 39.8603C19.7812 37.5522 18.8241 35.1186 18.2282 32.7925C17.9404 31.6694 17.7341 30.5607 17.6345 29.4962L16.7108 31.3436Z" fill="#222222"/>
</svg>
