<?xml version="1.0" encoding="UTF-8"?>
<svg width="220px" height="23px" viewBox="0 0 220 23" version="1.1" xmlns="http://www.w3.org/2000/svg" xmlns:xlink="http://www.w3.org/1999/xlink">
    <!-- Generator: Sketch 48.1 (47250) - http://www.bohemiancoding.com/sketch -->
    <title>gen_logoHeader</title>
    <desc>Created with Sketch.</desc>
    <defs>
        <polygon id="path-1" points="10.8883333 0.00766666667 10.8883333 11.7743333 0.0589259259 11.7743333 0.0589259259 0.00766666667 10.8883333 0.00766666667"></polygon>
        <polygon id="path-3" points="13.3146111 0 0 0 0 23.3333333 13.3146111 23.3333333 26.6292222 23.3333333 26.6292222 0"></polygon>
    </defs>
    <g id="BRAND-HEADER" stroke="none" stroke-width="1" fill="none" fill-rule="evenodd">
        <g id="gen_logoHeader">
            <g id="Page-1">
                <path d="M159.100407,21.7457037 C155.436704,21.7457037 153.851519,19.0551481 153.851519,15.772 C153.851519,12.6864444 155.566704,9.99607407 158.996519,9.99607407 C159.983926,9.99607407 162.400407,10.2675556 162.400407,11.0573704 C162.400407,11.3782963 162.114667,11.6251481 161.776889,11.6251481 C160.399667,11.2055185 160.036148,11.1316296 159.620222,11.1316296 C157.151704,11.1316296 156.917815,14.1429259 156.917815,15.7968148 C156.917815,18.8823704 157.619296,20.5853333 159.568,20.5853333 C160.217815,20.5853333 161.491148,20.2645926 162.19263,20.0425556 C162.60837,20.0671852 162.816333,20.314037 162.816333,20.5853333 C162.816333,20.7088519 162.764296,20.8321852 162.686333,20.9557037 C161.828926,21.4001481 160.243741,21.7457037 159.100407,21.7457037" id="Fill-1" fill="#3A3A3A"></path>
                <path d="M48.5661852,14.3491481 L48.5661852,18.7647037 C48.5661852,20.2200741 49.3719259,20.3469259 50.4619259,20.3150741 C51.6445185,20.2804444 52.2635926,19.9365556 52.9745185,19.6615556 C53.3898889,19.6858148 53.7341481,20.2941481 53.7341481,20.541 C53.7341481,21.3548889 50.6695185,21.7743333 49.3191481,21.7743333 C45.8391481,21.7743333 45.5017407,20.146 45.5017407,17.4821111 L45.5017407,13.5104444 C45.5017407,12.0302593 45.2937778,11.4626667 44.4887778,11.4626667 C43.8398889,11.4626667 43.0865556,12.0302593 42.4632222,12.7948889 L42.4632222,21.1684074 C42.4632222,21.4893333 42.1776667,21.736 41.8398889,21.736 L40.0219259,21.736 C39.6845185,21.736 39.398963,21.4893333 39.398963,21.1684074 L39.398963,13.2143333 C39.398963,11.9315556 39.0095185,11.4626667 38.4378519,11.4626667 C37.658963,11.4626667 36.9834074,12.0548889 36.3863704,12.7948889 L36.3863704,21.1684074 C36.3863704,21.4893333 36.1006296,21.736 35.763037,21.736 L33.9191481,21.736 C33.5817407,21.736 33.2958148,21.4893333 33.2958148,21.1684074 L33.3374815,10.5641481 C33.3374815,10.2432222 33.6234074,9.99655556 33.9608148,9.99655556 L35.8048889,9.99655556 C36.1422963,9.99655556 36.4278519,10.2432222 36.4278519,10.5641481 L36.3863704,11.4626667 C37.1393333,10.648963 38.0482222,10.0076667 39.4508148,10.0076667 C40.6972963,10.0076667 41.9178519,10.4022963 42.2813704,11.7097037 C43.1124815,10.7228519 44.0734074,10.0076667 45.5276667,10.0076667 C48.4102593,10.0076667 48.5661852,11.758963 48.5661852,14.3491481" id="Fill-3" fill="#3A3A3A"></path>
                <path d="M80.426,12.1287222 C80.4000741,12.2768704 80.2443333,12.3757593 80.0885926,12.3757593 C80.0106296,12.3757593 79.9326667,12.3509444 79.8808148,12.3016852 C79.3872963,11.783537 78.7898889,11.4381667 78.1665556,11.4381667 C77.5174815,11.4381667 76.8421111,11.8329815 76.1671111,12.7950185 L76.1671111,21.1683519 C76.1671111,21.4892778 75.9072963,21.7359444 75.5697037,21.7359444 L73.6998889,21.7359444 C73.3884074,21.7359444 73.1024815,21.4892778 73.1024815,21.1683519 L73.1024815,10.5887222 C73.1024815,10.2677963 73.3884074,10.0211296 73.6998889,10.0211296 L75.5697037,10.0211296 C76.1150741,10.0211296 76.1671111,10.4407593 76.1671111,10.9092778 L76.1671111,11.4381667 C76.9200741,10.4761296 78.0628519,9.95798148 79.3093333,9.95798148 C79.8028519,9.95798148 81.0493333,10.1061296 81.0493333,10.4761296 C81.0493333,10.5009444 81.0493333,10.5255741 81.0234074,10.5746481 L80.426,12.1287222 Z" id="Fill-5" fill="#3A3A3A"></path>
                <path d="M89.7478333,19.7231296 C90.1632037,19.7475741 90.3191296,20.2940556 90.3191296,20.5409074 C90.3191296,21.3549815 87.306537,21.7742407 85.9561667,21.7742407 C82.7880185,21.7742407 82.2426481,20.5409074 82.2426481,16.8407222 C82.2426481,14.9659074 82.3206111,12.4881296 82.5802407,10.5640556 C82.6320926,10.2185 82.8141296,9.99664815 83.2033889,9.99664815 L84.9433889,9.99664815 C85.3072778,9.99664815 85.5667222,10.2185 85.5667222,10.5144259 C85.2811667,13.4007222 85.1513519,15.8292407 85.1513519,18.7894259 C85.1513519,20.2447963 86.0341296,20.3149815 87.0989444,20.3149815 C87.9300556,20.3149815 88.9426481,20.0190556 89.7478333,19.7231296" id="Fill-7" fill="#3A3A3A"></path>
                <path d="M103.848296,14.3491481 L103.848296,18.7647037 C103.848296,20.2200741 104.653667,20.2754444 105.744037,20.2754444 C106.601259,20.2754444 107.613852,19.9793333 108.419222,19.6835926 C108.834593,19.7078519 109.016444,20.2941481 109.016444,20.541 C109.016444,21.3548889 105.951815,21.7743333 104.601444,21.7743333 C101.121444,21.7743333 100.784037,20.146 100.784037,17.4821111 L100.784037,13.5104444 C100.784037,12.0302593 100.576259,11.4626667 99.7710741,11.4626667 C99.122,11.4626667 98.3688519,12.0302593 97.7455185,12.7948889 L97.7455185,21.1684074 C97.7455185,21.4893333 97.459963,21.736 97.1221852,21.736 L95.3042222,21.736 C94.9668148,21.736 94.6810741,21.4893333 94.6810741,21.1684074 L94.6810741,13.2143333 C94.6810741,11.9315556 94.2916296,11.4626667 93.7201481,11.4626667 C92.9412593,11.4626667 92.2658889,12.0548889 91.6684815,12.7948889 L91.6684815,21.1684074 C91.6684815,21.4893333 91.3829259,21.736 91.0453333,21.736 L89.2012593,21.736 C88.8638519,21.736 88.5781111,21.4893333 88.5781111,21.1684074 L88.5781111,10.5641481 C88.5781111,10.2432222 88.8638519,9.99655556 89.2012593,9.99655556 L91.0453333,9.99655556 C91.3829259,9.99655556 91.6684815,10.2432222 91.6684815,10.5641481 L91.6684815,11.4626667 C92.4216296,10.648963 93.3305185,10.0076667 94.7329259,10.0076667 C95.9794074,10.0076667 97.2001481,10.4022963 97.5634815,11.7097037 C98.3945926,10.7228519 99.3557037,10.0076667 100.809778,10.0076667 C103.692556,10.0076667 103.848296,11.758963 103.848296,14.3491481" id="Fill-9" fill="#3A3A3A"></path>
                <path d="M111.870759,11.216 C109.715204,11.216 109.455389,14.4724815 109.455389,15.8537778 C109.455389,17.2598889 109.689278,20.5654444 111.819093,20.5654444 C113.948167,20.5654444 114.208167,17.2598889 114.208167,15.8537778 C114.208167,14.4724815 113.974463,11.216 111.870759,11.216 M111.844833,21.7743333 C108.079278,21.7743333 106.417241,19.1841481 106.417241,15.8785926 C106.417241,12.5976667 108.079278,10.0076667 111.844833,10.0076667 C115.584463,10.0076667 117.2465,12.5976667 117.2465,15.8785926 C117.2465,19.1841481 115.584463,21.7743333 111.844833,21.7743333" id="Fill-11" fill="#3A3A3A"></path>
                <path d="M128.983574,18.7646481 C128.983574,20.2200185 129.788574,20.2753889 130.879315,20.2753889 C131.736537,20.2753889 132.748944,19.979463 133.553944,19.683537 C133.96987,19.7079815 134.151352,20.2940926 134.151352,20.5409444 C134.151352,21.3548333 131.086722,21.7742778 129.736352,21.7742778 C126.256352,21.7742778 125.918944,20.1459444 125.918944,17.4820556 L125.918944,13.5103889 C125.918944,12.0055741 125.425611,11.4626111 124.750241,11.4626111 C124.023204,11.4626111 123.062278,12.0550185 122.46487,12.7950185 L122.46487,21.1683519 C122.46487,21.4892778 122.1795,21.7359444 121.867833,21.7359444 L119.997833,21.7359444 C119.686167,21.7359444 119.400796,21.4892778 119.400796,21.1683519 L119.400796,10.5640926 C119.400796,10.2431667 119.686167,9.9965 119.997833,9.9965 L121.867833,9.9965 C122.1795,9.9965 122.46487,10.2431667 122.46487,10.5640926 L122.46487,11.4626111 C123.451907,10.5009444 124.360611,10.0076111 125.763019,10.0076111 C128.775611,10.0076111 128.983574,12.0055741 128.983574,14.3490926 L128.983574,18.7646481 Z" id="Fill-13" fill="#3A3A3A"></path>
                <path d="M139.62937,19.6835185 C140.044741,19.707963 140.200481,20.2940741 140.200481,20.5409259 C140.200481,21.3548148 137.188074,21.7742593 135.837704,21.7742593 C132.66937,21.7742593 132.124,20.5409259 132.124,16.8405556 C132.124,14.9657407 132.201963,12.4881481 132.461407,10.5640741 C132.513444,10.2185185 132.695296,9.99648148 133.084741,9.99648148 L134.824741,9.99648148 C135.18863,9.99648148 135.448074,10.2185185 135.448074,10.5144444 C135.162148,13.4007407 135.032704,15.8292593 135.032704,18.7894444 C135.032704,20.2448148 135.915481,20.2753704 136.980111,20.2753704 C137.811593,20.2753704 138.82437,19.9794444 139.62937,19.6835185" id="Fill-15" fill="#3A3A3A"></path>
                <path d="M143.056556,11.216 C140.901185,11.216 140.641185,14.4724815 140.641185,15.8537778 C140.641185,17.2598889 140.875074,20.5654444 143.004519,20.5654444 C145.134148,20.5654444 145.393593,17.2598889 145.393593,15.8537778 C145.393593,14.4724815 145.159889,11.216 143.056556,11.216 M143.030259,21.7743333 C139.264889,21.7743333 137.603037,19.1841481 137.603037,15.8785926 C137.603037,12.5976667 139.264889,10.0076667 143.030259,10.0076667 C146.770444,10.0076667 148.432296,12.5976667 148.432296,15.8785926 C148.432296,19.1841481 146.770444,21.7743333 143.030259,21.7743333" id="Fill-17" fill="#3A3A3A"></path>
                <path d="M168.714111,11.216 C166.558741,11.216 166.298741,14.4724815 166.298741,15.8537778 C166.298741,17.2598889 166.532444,20.5654444 168.662074,20.5654444 C170.791704,20.5654444 171.051148,17.2598889 171.051148,15.8537778 C171.051148,14.4724815 170.817259,11.216 168.714111,11.216 M168.687815,21.7743333 C164.922444,21.7743333 163.260407,19.1841481 163.260407,15.8785926 C163.260407,12.5976667 164.922444,10.0076667 168.687815,10.0076667 C172.428,10.0076667 174.089852,12.5976667 174.089852,15.8785926 C174.089852,19.1841481 172.428,21.7743333 168.687815,21.7743333" id="Fill-19" fill="#3A3A3A"></path>
                <path d="M58.8996667,18.9867222 C58.2763333,19.7020926 57.3154074,20.3433889 56.4065185,20.3433889 C54.303,20.3433889 54.173,17.2354259 54.173,15.8537593 C54.173,14.472463 54.4067037,11.2159815 56.5363333,11.2159815 C58.7698519,11.2159815 58.8996667,13.8804259 58.8996667,15.2619074 L58.8996667,18.9867222 Z M66.5346667,19.661537 C65.7296667,19.9570926 64.7168889,20.3261667 63.8598519,20.3261667 C62.795037,20.3261667 61.9639259,20.2200556 61.9639259,18.7646852 L61.9639259,16.1793148 C61.9813333,14.3917222 61.9398519,11.0461667 61.9398519,11.0461667 C61.9192963,10.5098704 62.0333704,10.0506111 61.425037,10.0485741 L59.3517037,10.0417222 C59.048,10.0406111 58.9035556,10.2033889 58.8544815,10.4350556 C58.1991111,10.1609815 57.4398519,9.99838889 56.5624444,10.0076481 C52.7970741,10.0467222 51.1346667,12.5976481 51.1346667,15.8785741 C51.1346667,18.5670926 52.433,21.7743148 55.7052222,21.7743148 C56.9778148,21.7743148 58.1983704,21.0833889 59.1852222,20.0228333 C59.5487407,21.3302407 61.080963,21.7743148 62.7170741,21.7743148 C64.3274444,21.7743148 65.8074444,21.4535741 67.0022593,20.861537 C67.0802222,20.7630185 67.1320741,20.6643148 67.1320741,20.5409815 C67.1320741,20.2696852 66.9502222,19.6857963 66.5346667,19.661537 Z" id="Fill-21" fill="#3A3A3A"></path>
                <path d="M68.7752407,11.480037 C68.5426481,14.1070741 68.4650556,16.0222593 68.4650556,18.723 C68.4650556,20.1713333 69.2919074,20.3002222 70.3519074,20.3002222 C71.1787593,20.3002222 72.1869074,20.0055926 72.9880185,19.7107778 C73.4013519,19.7354074 73.556537,20.245037 73.556537,20.4905926 C73.556537,21.3007778 70.5583889,21.718 69.2143148,21.718 C66.0872778,21.718 65.492463,20.4905926 65.492463,16.808 C65.492463,15.0642963 65.6733889,13.2722593 65.7772778,11.480037 L64.6395,11.480037 C64.3556111,11.3576296 64.2170926,11.0104074 64.2170926,10.7161481 C64.2170926,10.4215185 64.3811667,10.1270741 64.6395,10.0041111 L65.9578333,10.0041111 L66.9398704,7.33096296 C67.0433889,7.0117037 67.2500556,6.74151852 67.5600556,6.74151852 L68.5939444,6.74151852 C68.9041296,6.74151852 69.1885741,6.91392593 69.1885741,7.208 C69.0854259,8.28837037 68.9817222,9.0467037 68.8785741,10.0041111 L71.0756111,10.0041111 C71.3337593,10.1270741 71.5572778,10.4215185 71.5572778,10.7161481 C71.5572778,11.0104074 71.3857963,11.3576296 71.0756111,11.480037 L68.7752407,11.480037 Z" id="Fill-23" fill="#3A3A3A"></path>
                <path d="M134.2165,8.17111111 C133.428167,8.17111111 132.71613,7.51 132.71613,6.72166667 C132.71613,5.93333333 133.428167,5.27222222 134.2165,5.27222222 C135.030204,5.27222222 135.742241,5.93333333 135.742241,6.72166667 C135.742241,7.51 135.030204,8.17111111 134.2165,8.17111111" id="Fill-25" fill="#3A3A3A"></path>
                <path d="M84.3383889,8.19190741 C83.5500556,8.19190741 82.8380185,7.5307963 82.8380185,6.74246296 C82.8380185,5.95412963 83.5500556,5.29301852 84.3383889,5.29301852 C85.1520926,5.29301852 85.8643148,5.95412963 85.8643148,6.74246296 C85.8643148,7.5307963 85.1520926,8.19190741 84.3383889,8.19190741" id="Fill-27" fill="#3A3A3A"></path>
                <path d="M151.262407,21.7495 C150.474074,21.7495 149.762222,21.0883889 149.762222,20.3000556 C149.762222,19.5117222 150.474074,18.8507963 151.262407,18.8507963 C152.076296,18.8507963 152.788333,19.5117222 152.788333,20.3000556 C152.788333,21.0883889 152.076296,21.7495 151.262407,21.7495" id="Fill-29" fill="#3A3A3A"></path>
                <path d="M204.972981,21.7457037 C201.309093,21.7457037 199.724093,19.0551481 199.724093,15.772 C199.724093,12.6864444 201.439093,9.99607407 204.869093,9.99607407 C205.8565,9.99607407 208.272981,10.2675556 208.272981,11.0573704 C208.272981,11.3782963 207.987241,11.6251481 207.649463,11.6251481 C206.272241,11.2055185 205.908537,11.1316296 205.492796,11.1316296 C203.024278,11.1316296 202.790204,14.1429259 202.790204,15.7968148 C202.790204,18.8823704 203.49187,20.5853333 205.440574,20.5853333 C206.090389,20.5853333 207.363537,20.2645926 208.065204,20.0425556 C208.480944,20.0671852 208.688722,20.314037 208.688722,20.5853333 C208.688722,20.7088519 208.63687,20.8321852 208.558907,20.9557037 C207.701315,21.4001481 206.116315,21.7457037 204.972981,21.7457037" id="Fill-31" fill="#3A3A3A"></path>
                <g id="Group-35" transform="translate(209.074074, 10.000000)">
                    <mask id="mask-2" fill="white">
                        <use xlink:href="#path-1"></use>
                    </mask>
                    <g id="Clip-34"></g>
                    <path d="M5.51262963,1.216 C3.35725926,1.216 3.09707407,4.47248148 3.09707407,5.85377778 C3.09707407,7.25988889 3.33096296,10.5654444 5.46059259,10.5654444 C7.59003704,10.5654444 7.84966667,7.25988889 7.84966667,5.85377778 C7.84966667,4.47248148 7.61577778,1.216 5.51262963,1.216 M5.48614815,11.7743333 C1.72096296,11.7743333 0.0589259259,9.18414815 0.0589259259,5.87859259 C0.0589259259,2.59766667 1.72096296,0.00766666667 5.48614815,0.00766666667 C9.22633333,0.00766666667 10.8883704,2.59766667 10.8883704,5.87859259 C10.8883704,9.18414815 9.22633333,11.7743333 5.48614815,11.7743333" id="Fill-33" fill="#3A3A3A" mask="url(#mask-2)"></path>
                </g>
                <path d="M197.134981,21.7495 C196.346648,21.7495 195.634611,21.0883889 195.634611,20.3000556 C195.634611,19.5117222 196.346648,18.8507963 197.134981,18.8507963 C197.948685,18.8507963 198.660722,19.5117222 198.660722,20.3000556 C198.660722,21.0883889 197.948685,21.7495 197.134981,21.7495" id="Fill-36" fill="#3A3A3A"></path>
                <path d="M191.232204,14.3842222 L191.232204,18.8164444 C191.232204,20.2773704 192.040352,20.6486667 193.134981,20.6486667 C193.636463,20.6486667 193.975167,21.7801481 191.988315,21.7801481 C188.495352,21.7801481 188.156648,20.2031111 188.156648,17.529037 L188.156648,13.5421852 C188.156648,12.0568148 187.947944,11.4875556 187.139796,11.4875556 C186.488315,11.4875556 185.732389,12.0568148 185.106648,12.8242222 L185.106648,21.2142222 C185.106648,21.5364444 184.819981,21.784037 184.481093,21.784037 L182.656278,21.784037 C182.317574,21.784037 182.030907,21.5364444 182.030907,21.2142222 L182.030907,13.2451481 C182.030907,11.9579259 181.639796,11.4875556 181.066278,11.4875556 C180.284611,11.4875556 179.606833,12.0816296 179.007204,12.8242222 L179.007204,21.2142222 C179.007204,21.5364444 178.720352,21.784037 178.381463,21.784037 L176.530907,21.784037 C176.192019,21.784037 175.905167,21.5364444 175.905167,21.2142222 L175.905167,10.6273704 C175.905167,10.3058889 176.192019,10.0581111 176.530907,10.0581111 L178.381463,10.0581111 C178.720352,10.0581111 179.007204,10.3058889 179.007204,10.6273704 L179.007204,11.4875556 C179.762944,10.669963 180.675537,10.0264444 182.08313,10.0264444 C183.334241,10.0264444 184.559426,10.4225556 184.924241,11.734963 C185.758315,10.7445926 186.722759,10.0264444 188.182574,10.0264444 C191.075722,10.0264444 191.232204,11.7847778 191.232204,14.3842222" id="Fill-38" fill="#3A3A3A"></path>
                <g id="Group-42">
                    <mask id="mask-4" fill="white">
                        <use xlink:href="#path-3"></use>
                    </mask>
                    <g id="Clip-41"></g>
                    <path d="M24.319037,4.32851852 C24.319037,9.05592593 19.1721852,18.1575926 16.4201481,21.7016667 C15.2831111,19.8262963 13.0482963,17.955 10.6860741,15.977037 C6.90885185,12.8140741 3.0032963,9.54388889 2.72644444,5.70425926 C2.62755556,4.33388889 2.93125926,3.25925926 3.62848148,2.51 C4.292,1.79685185 5.17311111,1.54296296 5.77662963,1.54296296 C7.66940741,1.54296296 9.70088889,5.2662963 11.3334815,8.25833333 C12.7025556,10.7677778 13.5784815,12.3059259 14.2988519,12.3059259 C14.6173704,12.3059259 15.002,11.9648148 15.002,11.5411111 C15.002,10.4844444 18.9768148,2.0287037 22.8203333,2.0287037 C22.9736667,2.0287037 24.319037,2.09333333 24.319037,4.32851852 M22.094037,0.49462963 C19.4382963,0.49462963 16.1564444,3.08240741 14.2136667,6.68203704 C12.4562593,2.91574074 8.8382963,0 5.87922222,0 C2.06051852,0 -3.7037037e-05,3.01888889 -3.7037037e-05,5.85925926 C-3.7037037e-05,12.925 9.19255556,18.6592593 14.1310741,21.7398148 C15.1658889,22.3853704 15.9831111,22.895 16.4988519,23.2805556 L16.5694074,23.3333333 L16.6445926,23.2868519 C23.0734815,19.2933333 26.6292222,10.1175926 26.6292222,5.30185185 C26.6292222,2.29166667 24.9336667,0.49462963 22.094037,0.49462963" id="Fill-40" fill="#F76C6F" mask="url(#mask-4)"></path>
                </g>
            </g>
        </g>
    </g>
</svg>