<svg width="80" height="80" viewBox="0 0 80 80" fill="none" xmlns="http://www.w3.org/2000/svg">
<path d="M21.14 15.4C21.005 15.399 20.8718 15.3683 20.75 15.31L16.47 13.2C16.2825 13.0851 16.1448 12.9042 16.0841 12.6929C16.0233 12.4815 16.0439 12.2551 16.1417 12.0582C16.2395 11.8612 16.4076 11.7081 16.6127 11.6288C16.8178 11.5496 17.0452 11.55 17.25 11.63L21.53 13.74C21.7033 13.8305 21.8415 13.976 21.9229 14.1537C22.0044 14.3314 22.0243 14.5312 21.9796 14.7215C21.9349 14.9117 21.8281 15.0817 21.6761 15.2046C21.524 15.3275 21.3354 15.3962 21.14 15.4Z" fill="white"/>
<path d="M25 11.64C24.8715 11.6401 24.7446 11.6114 24.6287 11.556C24.5127 11.5007 24.4107 11.42 24.33 11.32L20.44 6.66C20.3671 6.57202 20.3123 6.47054 20.2786 6.36136C20.245 6.25218 20.2331 6.13744 20.2438 6.02368C20.2545 5.90993 20.2875 5.7994 20.3409 5.69839C20.3943 5.59739 20.467 5.50789 20.555 5.435C20.7327 5.28781 20.9616 5.21723 21.1913 5.2388C21.3051 5.24948 21.4156 5.28245 21.5166 5.33585C21.6176 5.38925 21.7071 5.46202 21.78 5.55L25.66 10.2C25.7342 10.2886 25.7903 10.391 25.8249 10.5013C25.8596 10.6116 25.8721 10.7276 25.8619 10.8428C25.8517 10.9579 25.8189 11.07 25.7654 11.1724C25.7119 11.2749 25.6387 11.3658 25.55 11.44C25.3945 11.5668 25.2006 11.6372 25 11.64Z" fill="white"/>
<path d="M29.7 8.67001C29.4892 8.66993 29.2854 8.59417 29.1258 8.45653C28.9661 8.31889 28.8612 8.1285 28.83 7.92001L28.13 3.26001C28.1025 3.03252 28.1647 2.80326 28.3036 2.62098C28.4425 2.43869 28.6469 2.31776 28.8736 2.2839C29.1002 2.25003 29.3311 2.30591 29.5172 2.43964C29.7033 2.57337 29.8299 2.77441 29.87 3.00001L30.57 7.66001C30.6044 7.89073 30.5458 8.12567 30.407 8.31318C30.2682 8.5007 30.0607 8.62544 29.83 8.66001L29.7 8.67001Z" fill="white"/>
<path d="M41.41 10.41C52.8 10.41 61.41 18.41 61.41 29.05C61.41 34.25 58.72 39.85 56.2 44.69L55.56 45.91C53.49 49.85 52.12 52.46 51.78 56.49C52.1878 56.9251 52.4071 57.5038 52.39 58.1V60.24C52.3908 60.7331 52.233 61.2134 51.94 61.61C52.2288 62.0826 52.3811 62.6261 52.38 63.18C52.3793 63.7305 52.227 64.2702 51.94 64.74C52.2181 65.2099 52.3697 65.744 52.38 66.29C52.3922 67.0222 52.1361 67.7335 51.66 68.29C51.6898 68.4688 51.7098 68.649 51.72 68.83C51.72 71.64 49.93 71.9 49.34 71.91H48.15C48.15 72.11 48.05 72.33 48.03 72.44C48.01 72.55 47.97 72.71 47.95 72.78C47.8342 73.3829 47.5126 73.9269 47.0402 74.319C46.5678 74.7112 45.9739 74.9271 45.36 74.93C43.93 75.02 42.36 75.11 40.79 75.11C39.5769 75.1234 38.3643 75.0566 37.16 74.91C36.5578 74.9166 35.9704 74.7231 35.49 74.36C35.0089 73.9973 34.658 73.4886 34.49 72.91C34.49 72.83 34.42 72.46 34.37 72.06V71.73L33.24 71.6C32.48 71.54 31.17 70.91 31.17 68.76C31.1707 68.5519 31.1907 68.3443 31.23 68.14C30.9881 67.8953 30.8007 67.6022 30.68 67.28C30.5595 66.9607 30.5018 66.6211 30.51 66.28C30.4909 65.7449 30.6115 65.2142 30.86 64.74C30.58 64.2943 30.4374 63.7761 30.45 63.25C30.4395 62.6894 30.5812 62.1364 30.86 61.65C30.5808 61.2374 30.4374 60.748 30.45 60.25V57.85C30.4505 57.5861 30.5014 57.3247 30.6 57.08C30.7023 56.8364 30.8519 56.6155 31.04 56.43C30.69 52.43 29.34 49.83 27.28 45.9L26.64 44.68C24.11 39.86 21.42 34.25 21.42 29.06C21.42 18.44 30.01 10.42 41.42 10.42L41.41 10.41ZM41.41 8.65997C29.01 8.65997 19.67 17.43 19.67 29.05C19.67 34.65 22.46 40.48 25.09 45.5L25.73 46.72C27.57 50.22 28.82 52.6 29.23 55.93C28.8779 56.5118 28.6945 57.18 28.7 57.86V60.24C28.7126 60.7276 28.8143 61.2089 29 61.66C28.6602 62.6551 28.6602 63.7349 29 64.73C28.8296 65.2325 28.7418 65.7593 28.74 66.29C28.7299 67.1298 28.9588 67.9552 29.4 68.67V68.78C29.4 71.6 31.12 73.08 32.82 73.33V73.39C33.0743 74.3026 33.6127 75.1106 34.3571 75.6967C35.1015 76.2829 36.0131 76.6168 36.96 76.65C38.2377 76.7999 39.5236 76.8701 40.81 76.86C42.42 76.86 44.01 76.77 45.49 76.68C46.3982 76.6478 47.2744 76.3371 48 75.79C48.7298 75.2391 49.2684 74.4731 49.54 73.6C51.54 73.5 53.48 71.99 53.48 68.78V68.71C53.9201 67.9796 54.1518 67.1427 54.15 66.29C54.1482 65.7691 54.0603 65.2522 53.89 64.76C54.062 64.2716 54.1499 63.7577 54.15 63.24C54.1482 62.7093 54.0604 62.1825 53.89 61.68C54.0617 61.2193 54.1498 60.7316 54.15 60.24V58.1C54.1587 57.3633 53.9687 56.6378 53.6 56C54 52.65 55.2 50.37 57.12 46.72L57.76 45.5C60.38 40.5 63.17 34.64 63.17 29.05C63.17 17.43 53.83 8.65997 41.44 8.65997H41.41Z" fill="white"/>
<path d="M35.13 70.93C35.13 70.93 35.35 72.55 35.39 72.71C35.5136 73.1134 35.7667 73.4648 36.11 73.71C36.4475 73.9416 36.851 74.0574 37.26 74.04C39.9208 74.29 42.5992 74.29 45.26 74.04C45.6804 74.0476 46.0892 73.9019 46.41 73.63C46.7305 73.3599 46.9434 72.9838 47.01 72.57C47.09 72.31 47.26 70.96 47.66 70.96L35.13 70.93Z" fill="#979797"/>
<path d="M41.26 75.06C39.92 75.06 38.57 75 37.26 74.88C36.6688 74.8932 36.0887 74.7182 35.6034 74.3803C35.1181 74.0424 34.7527 73.559 34.56 73C34.51 72.8 34.41 72.17 34.26 71.06C34.2436 70.9366 34.2539 70.8112 34.2901 70.6922C34.3264 70.5732 34.3877 70.4633 34.47 70.37C34.5528 70.2765 34.6544 70.2014 34.7681 70.1497C34.8818 70.098 35.0051 70.0709 35.13 70.07H47.66C47.8526 70.0657 48.0412 70.1254 48.1961 70.2398C48.3511 70.3542 48.4638 70.5168 48.5164 70.7021C48.569 70.8874 48.5586 71.085 48.4869 71.2637C48.4152 71.4425 48.2861 71.5924 48.12 71.69C48.039 71.9386 47.9756 72.1925 47.93 72.45C47.9125 72.548 47.8891 72.6448 47.86 72.74C47.7493 73.3499 47.4267 73.901 46.9491 74.2962C46.4716 74.6914 45.8698 74.9052 45.25 74.9C44 75 42.61 75.06 41.26 75.06ZM37.26 73.13H37.34C39.9478 73.37 42.5722 73.37 45.18 73.13C45.2944 73.1484 45.4114 73.1437 45.524 73.1163C45.6366 73.0889 45.7425 73.0393 45.8357 72.9704C45.9288 72.9014 46.0073 72.8146 46.0664 72.7149C46.1255 72.6153 46.1642 72.5048 46.18 72.39C46.1744 72.3535 46.1744 72.3164 46.18 72.28C46.1849 72.2134 46.1849 72.1466 46.18 72.08L46.24 71.8H36.13C36.13 72.12 36.22 72.42 36.24 72.51C36.3262 72.6815 36.4533 72.8292 36.61 72.94C36.7945 73.0595 37.0102 73.1221 37.23 73.12L37.26 73.13Z" fill="#222222"/>
<path d="M49.3 70.94C49.3 70.94 38.78 71.48 33.3 70.7C33.3 70.7 32.08 70.7 32.08 68.8C32.0665 68.2533 32.2687 67.7233 32.643 67.3247C33.0174 66.9261 33.5336 66.6908 34.08 66.67C38.9516 67.4591 43.9184 67.4591 48.79 66.67C49.3364 66.6908 49.8527 66.9261 50.227 67.3247C50.6013 67.7233 50.8036 68.2533 50.79 68.8C50.77 70 50.4 70.94 49.3 70.94Z" fill="#E8E8E8"/>
<path d="M41.72 72C38.8806 72.0392 36.0417 71.8989 33.22 71.58C32.48 71.58 31.22 70.93 31.22 68.8C31.1985 68.0344 31.4786 67.291 32 66.73C32.5244 66.1773 33.2394 65.8448 34 65.8C34.0562 65.7903 34.1137 65.7903 34.17 65.8C38.9484 66.5801 43.8216 66.5801 48.6 65.8C48.6562 65.7901 48.7138 65.7901 48.77 65.8C49.5394 65.8385 50.2644 66.1715 50.795 66.73C51.3256 67.2885 51.621 68.0297 51.62 68.8C51.57 71.48 49.98 71.8 49.27 71.8C49 71.84 45.57 72 41.72 72ZM34 67.55C33.7075 67.585 33.4357 67.7191 33.23 67.93C33.0172 68.1645 32.9058 68.4737 32.92 68.79C32.92 69.48 33.11 69.79 33.3 69.79C38.72 70.56 49.11 70.04 49.21 70.03C49.31 70.02 49.85 70.14 49.88 68.75C49.8866 68.4312 49.7682 68.1225 49.55 67.89C49.3498 67.6771 49.0804 67.5424 48.79 67.51C43.8938 68.3133 38.9005 68.3268 34 67.55Z" fill="#222222"/>
<path d="M49.3 68.45C49.3 68.45 39.38 69 33.52 68.21C33.52 68.21 31.38 68.21 31.38 66.31C31.3853 65.745 31.6127 65.2047 32.0132 64.8061C32.4137 64.4075 32.955 64.1826 33.52 64.18C38.7503 64.97 44.0697 64.97 49.3 64.18C49.8628 64.1875 50.4006 64.4134 50.8 64.81C50.9971 65.0069 51.1535 65.2407 51.2602 65.4981C51.3669 65.7555 51.4219 66.0314 51.4219 66.31C51.4219 66.5886 51.3669 66.8645 51.2602 67.1219C51.1535 67.3793 50.9971 67.6131 50.8 67.81C50.6036 68.0112 50.3687 68.1706 50.1092 68.2789C49.8498 68.3871 49.5711 68.4419 49.29 68.44L49.3 68.45Z" fill="#E1E1E1"/>
<path d="M42 69.52C39.1506 69.5506 36.3019 69.407 33.47 69.09C33.0893 69.113 32.7079 69.0588 32.3487 68.9307C31.9895 68.8025 31.6599 68.6031 31.3797 68.3444C31.0994 68.0856 30.8744 67.773 30.7181 67.4251C30.5618 67.0772 30.4774 66.7013 30.47 66.32C30.4703 65.9238 30.5492 65.5316 30.7019 65.166C30.8547 64.8004 31.0783 64.4687 31.36 64.19C31.6395 63.9102 31.9716 63.6883 32.3371 63.5373C32.7027 63.3863 33.0945 63.309 33.49 63.31H33.62C38.7639 64.09 43.9961 64.09 49.14 63.31H49.27C50.0657 63.31 50.8287 63.6261 51.3913 64.1887C51.9539 64.7513 52.27 65.5144 52.27 66.31C52.27 67.1057 51.9539 67.8687 51.3913 68.4313C50.8287 68.9939 50.0657 69.31 49.27 69.31C49 69.35 45.76 69.52 42 69.52ZM33.47 65.06C33.1555 65.0698 32.8575 65.2026 32.64 65.43C32.5207 65.5457 32.4256 65.6839 32.3604 65.8367C32.2951 65.9896 32.261 66.1538 32.26 66.32C32.26 67.25 33.26 67.32 33.54 67.32H33.65C39.36 68.09 49.16 67.56 49.26 67.55C49.5081 67.5477 49.7499 67.4722 49.9553 67.3329C50.1606 67.1937 50.3203 66.9969 50.4143 66.7673C50.5082 66.5377 50.5323 66.2855 50.4835 66.0423C50.4348 65.799 50.3152 65.5756 50.14 65.4C49.9169 65.1808 49.6222 65.0495 49.31 65.03C44.0574 65.826 38.7156 65.8361 33.46 65.06H33.47Z" fill="#222222"/>
<path d="M49.3 65.34C47.59 65.42 46.83 65.47 45.12 65.5C43.41 65.53 42.81 65.5 41.18 65.5C38.29 65.5 35.6 65.78 32.74 64.95C32.346 64.8626 31.9934 64.644 31.74 64.33C31.4974 64.0174 31.3607 63.6356 31.35 63.24C31.3553 62.675 31.5827 62.1347 31.9832 61.7361C32.3837 61.3375 32.925 61.1126 33.49 61.11C38.7203 61.9 44.0397 61.9 49.27 61.11C49.8367 61.1128 50.3794 61.3392 50.78 61.74C51.1733 62.1402 51.3937 62.6789 51.3937 63.24C51.3937 63.8011 51.1733 64.3398 50.78 64.74C50.3784 65.138 49.8355 65.3609 49.27 65.36L49.3 65.34Z" fill="#E8E8E8"/>
<path d="M37.78 66.42C35.9988 66.4666 34.2202 66.2544 32.5 65.79C31.9438 65.6474 31.449 65.3281 31.09 64.88C30.7266 64.4208 30.5229 63.8555 30.51 63.27C30.51 62.4743 30.8261 61.7113 31.3887 61.1487C31.9513 60.5861 32.7144 60.27 33.51 60.27H33.64C38.7839 61.05 44.0161 61.05 49.16 60.27H49.29C49.6855 60.269 50.0773 60.3463 50.4429 60.4973C50.8084 60.6483 51.1405 60.8701 51.42 61.15C51.6997 61.4287 51.9216 61.7599 52.073 62.1245C52.2244 62.4892 52.3024 62.8802 52.3024 63.275C52.3024 63.6698 52.2244 64.0608 52.073 64.4255C51.9216 64.7901 51.6997 65.1213 51.42 65.4C51.1405 65.6798 50.8084 65.9017 50.4429 66.0527C50.0773 66.2037 49.6855 66.281 49.29 66.28H49.1H48.43C47.28 66.34 46.51 66.38 45.13 66.4C44.02 66.4 43.37 66.4 42.62 66.4H41.18H39.46L37.78 66.42ZM33.46 62C33.1455 62.0098 32.8475 62.1426 32.63 62.37C32.5114 62.4841 32.4168 62.6207 32.3515 62.7718C32.2863 62.9229 32.2518 63.0854 32.25 63.25C32.2669 63.4482 32.3426 63.6368 32.4673 63.7918C32.592 63.9468 32.76 64.061 32.95 64.12C35.0651 64.6374 37.2484 64.8196 39.42 64.66H41.18H42.64C43.38 64.66 44.02 64.66 45.1 64.66C46.47 64.66 47.22 64.6 48.35 64.54H49.26C49.3326 64.5257 49.4074 64.5257 49.48 64.54C49.7491 64.4992 49.998 64.373 50.19 64.18C50.4203 63.943 50.5491 63.6255 50.5491 63.295C50.5491 62.9645 50.4203 62.647 50.19 62.41C49.9669 62.1908 49.6722 62.0595 49.36 62.04C44.0875 62.8168 38.7286 62.8033 33.46 62Z" fill="#222222"/>
<path d="M60.45 29.05C60.45 18.53 51.93 11.35 41.45 11.35C30.97 11.35 22.45 18.53 22.45 29.05C22.45 33.77 24.72 38.82 27.56 44.26C30.4 49.7 32.17 52.56 32.17 58.58C32.1726 58.9363 32.316 59.2771 32.5689 59.5281C32.8218 59.7791 33.1637 59.92 33.52 59.92H49.52C49.6976 59.925 49.8744 59.8944 50.04 59.83C50.1999 59.7605 50.3457 59.6622 50.47 59.54C50.5967 59.4134 50.6984 59.2641 50.77 59.1C50.8387 58.9353 50.8727 58.7583 50.87 58.58C50.87 52.58 52.7 49.58 55.48 44.26C58.26 38.94 60.45 33.77 60.45 29.05Z" fill="#FFE28B"/>
<path d="M49.53 60.8H33.53C32.9544 60.7928 32.4048 60.5593 32 60.15C31.5819 59.734 31.3447 59.1698 31.34 58.58C31.34 53.25 29.89 50.48 27.47 45.89L26.83 44.67C23.71 38.67 21.63 33.73 21.63 29.05C21.63 18.47 30.17 10.48 41.5 10.48C52.83 10.48 61.38 18.48 61.38 29.05C61.38 34.27 58.81 39.87 56.31 44.67L55.71 45.81C53.27 50.45 51.8 53.24 51.8 58.58C51.8045 58.8764 51.743 59.1702 51.62 59.44C51.5092 59.7147 51.3423 59.9634 51.13 60.17C50.9318 60.371 50.6932 60.5278 50.43 60.63C50.1457 60.7506 49.8387 60.8086 49.53 60.8ZM41.45 12.23C31.12 12.23 23.33 19.46 23.33 29.05C23.33 33.38 25.33 38.1 28.33 43.86L29 45.07C31.43 49.73 33 52.81 33 58.58C33.0073 58.7077 33.0606 58.8285 33.15 58.92C33.2399 59.003 33.3576 59.0494 33.48 59.05H49.48C49.5459 59.064 49.6141 59.064 49.68 59.05C49.7256 59.0328 49.7666 59.0054 49.8 58.97C49.8538 58.9183 49.8979 58.8573 49.93 58.79C49.9422 58.734 49.9422 58.676 49.93 58.62C49.93 52.85 51.56 49.74 54.04 45.04L54.63 43.9C57.04 39.29 59.51 33.9 59.51 29.09C59.58 19.46 51.78 12.23 41.45 12.23Z" fill="#222222"/>
<path d="M50 61.68L47.76 61.84C43.468 62.21 39.152 62.21 34.86 61.84L32.86 61.68C32.6691 61.69 32.4782 61.6593 32.3 61.59C32.1188 61.518 31.9527 61.4129 31.81 61.28C31.6714 61.1476 31.5624 60.9875 31.49 60.81C31.418 60.6286 31.3807 60.4352 31.38 60.24V57.84C31.38 56.04 35.23 56.42 36.56 56.42C37.89 56.42 41.77 56.42 44.38 56.5C46.99 56.58 47.55 56.5 50.04 56.69C50.2238 56.6897 50.4063 56.7201 50.58 56.78C50.7526 56.8468 50.9093 56.9489 51.0402 57.0798C51.1711 57.2107 51.2732 57.3674 51.34 57.54C51.4086 57.7114 51.4393 57.8956 51.43 58.08V60.24C51.4341 60.4292 51.3966 60.617 51.32 60.79C51.2514 60.9646 51.1495 61.1242 51.02 61.26C50.8882 61.3922 50.732 61.4975 50.56 61.57C50.3852 61.6409 50.1986 61.6782 50.01 61.68H50Z" fill="#E1E1E1"/>
<path d="M41.32 63C39.14 63 36.96 62.9 34.79 62.72L32.79 62.56C32.5033 62.5606 32.2188 62.5098 31.95 62.41C31.6615 62.2926 31.3971 62.1231 31.17 61.91C30.9324 61.6931 30.7506 61.4221 30.64 61.12C30.5209 60.8419 30.4597 60.5425 30.46 60.24V57.84C30.4595 57.582 30.5115 57.3265 30.613 57.0893C30.7144 56.852 30.8631 56.6379 31.05 56.46C32.05 55.46 34 55.46 35.92 55.54H36.52C37.81 55.54 41.74 55.54 44.37 55.62C45.28 55.62 45.94 55.62 46.52 55.62C47.58 55.62 48.41 55.62 50.02 55.77C50.3071 55.7644 50.5925 55.8154 50.86 55.92C51.1474 56.0279 51.4071 56.1988 51.62 56.42C51.8292 56.633 51.9956 56.8842 52.11 57.16C52.2283 57.4516 52.2795 57.766 52.26 58.08V60.19C52.2659 60.507 52.201 60.8213 52.07 61.11C51.9613 61.3727 51.8054 61.6134 51.61 61.82C51.397 62.0343 51.1461 62.2073 50.87 62.33C50.5962 62.4403 50.305 62.5012 50.01 62.51L47.79 62.67C45.68 62.9 43.5 63 41.32 63ZM32.86 60.81H32.93L34.93 60.97C39.1719 61.34 43.438 61.34 47.68 60.97L50 60.81C50.0957 60.8121 50.1909 60.7951 50.28 60.76C50.3412 60.7363 50.396 60.6987 50.44 60.65C50.4911 60.5982 50.5319 60.5371 50.56 60.47C50.5735 60.3939 50.5735 60.3161 50.56 60.24V58.08C50.5778 58.0111 50.5778 57.9389 50.56 57.87C50.534 57.8071 50.4967 57.7495 50.45 57.7C50.4045 57.6555 50.3499 57.6214 50.29 57.6C50.2305 57.5895 50.1695 57.5895 50.11 57.6H50C48.42 57.48 47.65 57.47 46.57 57.45C45.98 57.45 45.31 57.45 44.38 57.45C41.79 57.37 37.88 57.37 36.59 57.37H35.94C35.02 57.37 32.87 57.27 32.34 57.8C32.32 57.8126 32.3039 57.8305 32.2933 57.8517C32.2827 57.8728 32.2781 57.8964 32.28 57.92V60.32C32.266 60.3994 32.266 60.4806 32.28 60.56C32.3081 60.6242 32.349 60.682 32.4 60.73C32.4555 60.7812 32.5199 60.8219 32.59 60.85C32.6627 60.8636 32.7373 60.8636 32.81 60.85L32.86 60.81Z" fill="#222222"/>
<path d="M36.92 57.32C36.7248 57.3213 36.5349 57.2569 36.3807 57.1372C36.2266 57.0175 36.1171 56.8494 36.07 56.66L31.55 38.85C31.5145 38.6325 31.5618 38.4097 31.6826 38.2254C31.8035 38.0411 31.9891 37.9089 32.2027 37.8549C32.4163 37.8009 32.6424 37.8289 32.8364 37.9336C33.0303 38.0382 33.1779 38.2118 33.25 38.42L37.77 56.23C37.8248 56.454 37.7895 56.6906 37.6717 56.8888C37.5539 57.087 37.363 57.2311 37.14 57.29L36.92 57.32Z" fill="#222222"/>
<path d="M45.65 57.32C45.5703 57.3296 45.4897 57.3296 45.41 57.32C45.1882 57.2549 45.0009 57.1051 44.8886 56.903C44.7763 56.7009 44.7481 56.4628 44.81 56.24L49.81 38.43C49.8409 38.3197 49.8931 38.2165 49.9639 38.1264C50.0346 38.0363 50.1224 37.961 50.2222 37.9049C50.322 37.8487 50.4319 37.8127 50.5457 37.799C50.6594 37.7853 50.7747 37.7941 50.885 37.825C50.9953 37.8559 51.0985 37.9082 51.1886 37.9789C51.2787 38.0496 51.354 38.1374 51.4101 38.2372C51.4663 38.337 51.5023 38.4469 51.516 38.5607C51.5297 38.6744 51.5209 38.7897 51.49 38.9L46.49 56.71C46.4341 56.8885 46.3223 57.0442 46.1709 57.154C46.0196 57.2639 45.837 57.3221 45.65 57.32Z" fill="#222222"/>
<path d="M48.61 44.85H48.38C47.4339 44.5951 46.6172 43.9959 46.09 43.17C45.5888 43.2755 45.0712 43.2755 44.57 43.17C43.7638 43.0094 43.0046 42.6674 42.35 42.17C41.9953 42.7313 41.4817 43.1745 40.8746 43.4434C40.2674 43.7123 39.5941 43.7946 38.94 43.68C38.444 43.5651 37.9761 43.3519 37.5639 43.053C37.1516 42.7541 36.8035 42.3757 36.54 41.94C36.1446 42.4864 35.6139 42.9206 35 43.2C34.5504 43.3651 34.0577 43.3707 33.6045 43.216C33.1512 43.0613 32.7648 42.7556 32.51 42.35C32.4398 42.2594 32.388 42.1558 32.3578 42.0452C32.3276 41.9346 32.3194 41.8192 32.3338 41.7054C32.3482 41.5917 32.3849 41.4819 32.4417 41.3823C32.4985 41.2827 32.5744 41.1953 32.665 41.125C32.7556 41.0548 32.8592 41.003 32.9698 40.9728C33.0804 40.9426 33.1959 40.9344 33.3096 40.9488C33.4234 40.9632 33.5332 40.9999 33.6328 41.0567C33.7323 41.1135 33.8198 41.1894 33.89 41.28C34.17 41.64 34.3 41.59 34.37 41.56C34.9711 41.19 35.4454 40.6459 35.73 40L35.61 39.56C35.23 38.11 34.81 36.47 35.61 34.87C35.7566 34.4719 36.0348 34.1358 36.3986 33.9176C36.7623 33.6993 37.1898 33.612 37.61 33.67C38.0109 33.7656 38.3671 33.9951 38.6198 34.3205C38.8726 34.646 39.0067 35.048 39 35.46C38.8605 37.0977 38.3983 38.6917 37.64 40.15C37.7534 40.5625 37.9656 40.9411 38.2584 41.2531C38.5511 41.565 38.9155 41.8008 39.32 41.94C39.6586 41.9482 39.9931 41.8653 40.2887 41.6999C40.5842 41.5346 40.8299 41.2928 41 41C41.0257 40.9684 41.0491 40.935 41.07 40.9C40.672 40.391 40.3672 39.8154 40.17 39.2C39.9 38.32 39.52 35.31 40.75 33.96C40.9958 33.6855 41.3126 33.4842 41.6655 33.3783C42.0184 33.2724 42.3937 33.2661 42.75 33.36C43.0745 33.4243 43.3765 33.5727 43.6257 33.7903C43.8748 34.0079 44.0626 34.2871 44.17 34.6C44.75 36.12 43.93 38.86 43.17 40.6C43.6489 41.0386 44.2355 41.3422 44.87 41.48C45.016 41.4993 45.164 41.4993 45.31 41.48C45.1145 40.8287 44.9904 40.1581 44.94 39.48C44.85 38.57 44.59 35.75 46.6 35.03C47.0413 34.897 47.5166 34.9363 47.93 35.14C48.1352 35.2407 48.3185 35.3809 48.4695 35.5525C48.6205 35.7241 48.7362 35.9237 48.81 36.14C48.9743 36.4955 49.0694 36.879 49.09 37.27C49.3249 38.8548 48.969 40.4706 48.09 41.81C47.9537 41.9824 47.8068 42.146 47.65 42.3C47.9416 42.7202 48.3688 43.0274 48.86 43.17C49.0735 43.2156 49.262 43.3397 49.3882 43.5177C49.5145 43.6958 49.5692 43.9148 49.5415 44.1312C49.5138 44.3477 49.4057 44.5459 49.2387 44.6865C49.0718 44.827 48.8581 44.8997 48.64 44.89L48.61 44.85ZM47.19 36.69C46.92 36.81 46.51 37.3 46.7 39.34C46.7317 39.6758 46.7818 40.0097 46.85 40.34C47.3422 39.4222 47.5246 38.3699 47.37 37.34C47.3582 37.1259 47.3074 36.9158 47.22 36.72L47.19 36.69ZM42.27 35C42.2328 34.9968 42.1953 35.0024 42.1605 35.0163C42.1258 35.0302 42.0948 35.052 42.07 35.08C41.55 35.66 41.62 37.79 41.88 38.63C41.9022 38.7115 41.9289 38.7916 41.96 38.87C42.43 37.52 42.81 35.87 42.53 35.16C42.48 35.03 42.45 35.02 42.41 35.01L42.27 35ZM37.21 35.48C37.2082 35.5067 37.2082 35.5334 37.21 35.56C36.9958 36.0293 36.9063 36.546 36.95 37.06C37.1276 36.5679 37.232 36.0524 37.26 35.53L37.21 35.48Z" fill="#222222"/>
<path d="M47.69 16.15C49.5507 16.9097 51.2482 18.0198 52.69 19.42C54.578 21.4018 55.7621 23.9492 56.06 26.67C56.2728 27.9818 56.1383 29.3264 55.67 30.57C54.49 33.17 52.41 31.57 51.75 29.64C51.09 27.71 51.21 25.37 50.97 23.25C50.73 21.13 50.09 17 47.69 16.15Z" fill="white"/>
<path d="M54.09 32.81H54C52.54 32.74 51.39 31.27 50.93 29.94C50.476 28.4592 50.2468 26.9187 50.25 25.37C50.25 24.69 50.18 24.02 50.11 23.37C49.62 19 48.5 17.52 47.58 17.07L47.36 17C47.1385 16.9151 46.9599 16.7457 46.8633 16.5291C46.7667 16.3125 46.7601 16.0664 46.845 15.845C46.9299 15.6235 47.0992 15.4448 47.3158 15.3483C47.5324 15.2517 47.7785 15.2451 48 15.33L48.33 15.46C50.1892 16.2538 51.8847 17.3864 53.33 18.8C55.3592 20.9259 56.6345 23.6591 56.96 26.58C57.1895 28.0272 57.0379 29.5092 56.52 30.88C55.74 32.53 54.7 32.81 54.09 32.81ZM51 19.11C51.4114 20.4283 51.6862 21.7854 51.82 23.16C51.9 23.86 51.93 24.58 51.97 25.27C51.9655 26.6508 52.1608 28.0251 52.55 29.35C52.9 30.35 53.55 31.03 54.05 31.06C54.55 31.09 54.74 30.47 54.85 30.21C55.2471 29.1231 55.3606 27.9529 55.18 26.81C54.9115 24.2602 53.8157 21.8684 52.06 20C51.73 19.71 51.38 19.4 51 19.11Z" fill="white"/>
</svg>
